<svg width="34" height="32" viewBox="0 0 34 32" fill="none" xmlns="http://www.w3.org/2000/svg">
<path d="M33.3053 16C33.3053 24.8889 25.8809 32 16.8933 32C7.90581 32 0.351074 24.8889 0.351074 16C0.351074 7.11112 7.77555 0 16.763 0C25.7506 0 33.3053 7.11112 33.3053 16Z" fill="url(#paint0_linear_2890_1359)"/>
<path d="M4.35773 17.1932C4.36455 17.1356 4.40641 17.0952 4.45916 17.0952C4.50999 17.0952 4.55212 17.1355 4.56001 17.1929L4.77913 18.5839L4.56001 19.9512C4.55187 20.0085 4.51025 20.0484 4.45916 20.0484C4.40639 20.0484 4.36455 20.0083 4.35773 19.9507L4.17285 18.5839L4.35773 17.1932Z" fill="white"/>
<path d="M5.39228 16.2344C5.44557 16.2344 5.48879 16.2756 5.49751 16.3353L5.77995 18.5839L5.49723 20.7832C5.48854 20.8428 5.44529 20.8843 5.39228 20.8843C5.33847 20.8843 5.29414 20.8417 5.28707 20.7827L5.03857 18.5839L5.28707 16.3353C5.2944 16.277 5.33872 16.2344 5.39228 16.2344Z" fill="white"/>
<path d="M9.21697 14.4489C9.22176 14.3439 9.30615 14.2612 9.408 14.2612C9.50946 14.2612 9.59345 14.3439 9.59944 14.4489L9.82323 18.5858L9.59944 21.2596V21.2588C9.59345 21.3634 9.50946 21.4461 9.408 21.4461C9.30615 21.4461 9.22206 21.3637 9.21697 21.2593L9.01904 18.5858L9.21697 14.4489Z" fill="white"/>
<path d="M7.23563 15.8438C7.24191 15.7611 7.3058 15.6992 7.38409 15.6992C7.46157 15.6992 7.52545 15.7611 7.53227 15.8432L7.78565 18.5848L7.53227 21.2367C7.52545 21.3188 7.46157 21.3808 7.38409 21.3808C7.30577 21.3808 7.24161 21.3188 7.23563 21.2367L7.0127 18.5848L7.23563 15.8438Z" fill="white"/>
<path d="M11.6994 21.2155C11.6942 21.3447 11.5915 21.4457 11.465 21.4457C11.3378 21.4457 11.2347 21.3445 11.2307 21.2163L11.0586 18.5867L11.2307 13.0796C11.2348 12.9504 11.3378 12.8491 11.4653 12.8491C11.5918 12.8491 11.6945 12.9501 11.6997 13.0793L11.8935 18.5869L11.6994 21.2155Z" fill="white"/>
<path d="M15.9965 21.1415C15.9933 21.316 15.8497 21.4579 15.6758 21.4579C15.5017 21.4579 15.3576 21.316 15.3549 21.1431C15.3549 21.1431 15.2339 18.5903 15.2339 18.5862L15.3549 12.2277C15.3576 12.053 15.5014 11.9111 15.6757 11.9111C15.8497 11.9111 15.9935 12.0532 15.9965 12.2275L16.1319 18.5884L15.9965 21.1415Z" fill="white"/>
<path d="M13.8322 21.1745C13.8281 21.3279 13.706 21.4483 13.5546 21.4483C13.402 21.4483 13.28 21.3279 13.2767 21.1761L13.1299 18.588L13.2765 13.0402C13.2797 12.8867 13.4018 12.7666 13.5543 12.7666C13.7058 12.7666 13.8278 12.8867 13.8319 13.0402L13.9969 18.5877L13.8322 21.1764V21.1745Z" fill="white"/>
<path d="M8.56198 21.2585C8.55519 21.3524 8.48229 21.4238 8.39232 21.4238C8.30095 21.4238 8.22837 21.3524 8.22239 21.2582L8.01221 18.5845L8.22239 16.0419C8.22809 15.9474 8.30095 15.876 8.39232 15.876C8.48259 15.876 8.55539 15.9469 8.56198 16.0408L8.80065 18.5845L8.56198 21.2585Z" fill="white"/>
<path d="M6.51087 21.1549C6.50325 21.226 6.44997 21.2775 6.3842 21.2775C6.31729 21.2775 6.26401 21.2257 6.25747 21.1544L6.02148 18.5841L6.25747 15.9163C6.26427 15.8451 6.31755 15.7935 6.38417 15.7935C6.44995 15.7935 6.50323 15.8449 6.51112 15.9163L6.77893 18.5841L6.51087 21.1549Z" fill="white"/>
<path d="M14.3115 13.2432C14.3147 13.0772 14.4467 12.9478 14.6111 12.9478C14.7753 12.9478 14.9064 13.0772 14.9102 13.2426L15.0603 18.5884L14.9102 21.1603V21.1582C14.9064 21.324 14.7753 21.4533 14.6111 21.4533C14.4464 21.4533 14.3148 21.3238 14.3115 21.1601L14.1777 18.5881L14.3115 13.2432Z" fill="white"/>
<path d="M10.6455 21.2421C10.6401 21.3592 10.5463 21.451 10.4326 21.451C10.3179 21.451 10.2244 21.3592 10.2198 21.2432L10.0347 18.5864L10.2195 13.5033C10.2244 13.3862 10.3179 13.2944 10.4326 13.2944C10.5463 13.2944 10.6398 13.3859 10.6455 13.5033L10.8543 18.5864L10.6455 21.2421Z" fill="white"/>
<path d="M12.7616 21.2002V21.1998C12.7565 21.3403 12.6447 21.4506 12.5058 21.4506C12.3662 21.4506 12.2537 21.3399 12.2499 21.1999L12.0903 18.5867L12.2496 12.8939C12.2534 12.7522 12.3659 12.6416 12.5058 12.6416C12.6447 12.6416 12.7572 12.7525 12.7616 12.8939L12.9409 18.587L12.7616 21.1988V21.1998C12.7616 21.1996 12.7616 21.1993 12.7616 21.1991V21.2002Z" fill="white"/>
<path d="M25.1119 15.5445C25.4817 15.3907 25.8875 15.3053 26.313 15.3053C28.0278 15.3053 29.4178 16.6845 29.4179 18.3854C29.4179 20.0863 28.0275 21.4652 26.3128 21.4652C26.2573 21.4652 17.7134 21.4609 17.7055 21.4601C17.52 21.4415 17.3726 21.2845 17.3701 21.096V11.322C17.3723 11.1424 17.4347 11.0497 17.6691 10.9598C18.272 10.7286 18.9549 10.5918 19.6554 10.5918C22.518 10.5918 24.8648 12.7689 25.1119 15.5445Z" fill="white"/>
<path d="M16.3932 11.6519C16.3959 11.4653 16.5493 11.3135 16.7361 11.3135C16.9223 11.3135 17.0756 11.4653 17.0783 11.6514L17.2309 18.5894L17.0783 21.1074V21.1045C17.0756 21.2911 16.9223 21.4427 16.7361 21.4427C16.5493 21.4427 16.3959 21.2911 16.3935 21.1072L16.2529 18.5894L16.3932 11.6519Z" fill="white"/>
<defs>
<linearGradient id="paint0_linear_2890_1359" x1="16.8282" y1="0" x2="16.8282" y2="32" gradientUnits="userSpaceOnUse">
<stop stop-color="#FF7602"/>
<stop offset="1" stop-color="#FF3502"/>
</linearGradient>
</defs>
</svg>
