<svg width="25" height="25" viewBox="0 0 25 25" fill="none" xmlns="http://www.w3.org/2000/svg">
<g clip-path="url(#clip0_2873_1411)">
<path d="M24.9751 7.35007C24.9165 6.02172 24.7017 5.1085 24.394 4.31717C24.0765 3.4772 23.5881 2.72518 22.9483 2.10002C22.3231 1.46513 21.5662 0.971793 20.7359 0.659308C19.94 0.351593 19.0316 0.136784 17.7032 0.0782165C16.3649 0.0146894 15.9401 0 12.5459 0C9.15167 0 8.72682 0.0146894 7.39352 0.0732565C6.06517 0.131824 5.15195 0.346824 4.36082 0.654348C3.52066 0.971793 2.76863 1.46017 2.14347 2.10002C1.50859 2.72518 1.01544 3.48216 0.702765 4.3124C0.39505 5.1085 0.18024 6.01676 0.121673 7.34511C0.0581465 8.68337 0.043457 9.10822 0.043457 12.5024C0.043457 15.8967 0.0581465 16.3215 0.116713 17.6548C0.17528 18.9832 0.39028 19.8964 0.697995 20.6877C1.01544 21.5277 1.50859 22.2797 2.14347 22.9049C2.76863 23.5398 3.52562 24.0331 4.35586 24.3456C5.15195 24.6533 6.06021 24.8681 7.38875 24.9267C8.72186 24.9854 9.1469 24.9999 12.5411 24.9999C15.9353 24.9999 16.3602 24.9854 17.6935 24.9267C19.0218 24.8681 19.9351 24.6533 20.7262 24.3456C22.4063 23.696 23.7347 22.3676 24.3842 20.6877C24.6918 19.8916 24.9068 18.9832 24.9653 17.6548C25.0239 16.3215 25.0386 15.8967 25.0386 12.5024C25.0386 9.10822 25.0336 8.68337 24.9751 7.35007ZM22.7238 17.5571C22.67 18.7781 22.4649 19.4374 22.2939 19.8769C21.8739 20.966 21.0095 21.8304 19.9204 22.2505C19.4808 22.4214 18.8167 22.6265 17.6006 22.6801C16.282 22.7389 15.8865 22.7534 12.5508 22.7534C9.2152 22.7534 8.81477 22.7389 7.50092 22.6801C6.27998 22.6265 5.62067 22.4214 5.18113 22.2505C4.63915 22.0502 4.14582 21.7328 3.74539 21.3176C3.33027 20.9122 3.01282 20.4239 2.81251 19.8819C2.64158 19.4424 2.4365 18.7781 2.38289 17.5621C2.32413 16.2435 2.30964 15.8478 2.30964 12.5122C2.30964 9.17652 2.32413 8.77609 2.38289 7.46243C2.4365 6.24149 2.64158 5.58218 2.81251 5.14264C3.01282 4.60047 3.33027 4.10732 3.75035 3.7067C4.15555 3.29158 4.64392 2.97414 5.18609 2.77402C5.62563 2.60309 6.2899 2.39801 7.50588 2.34421C8.8245 2.28564 9.22016 2.27095 12.5556 2.27095C15.8962 2.27095 16.2917 2.28564 17.6055 2.34421C18.8265 2.39801 19.4858 2.60309 19.9253 2.77402C20.4673 2.97414 20.9606 3.29158 21.3611 3.7067C21.7762 4.11209 22.0936 4.60047 22.2939 5.14264C22.4649 5.58218 22.67 6.24626 22.7238 7.46243C22.7823 8.78105 22.797 9.17652 22.797 12.5122C22.797 15.8478 22.7823 16.2385 22.7238 17.5571Z" fill="#14142B"/>
<path d="M12.5462 6.08039C9.00068 6.08039 6.12402 8.95686 6.12402 12.5026C6.12402 16.0483 9.00068 18.9247 12.5462 18.9247C16.0919 18.9247 18.9683 16.0483 18.9683 12.5026C18.9683 8.95686 16.0919 6.08039 12.5462 6.08039ZM12.5462 16.6685C10.246 16.6685 8.38029 14.8029 8.38029 12.5026C8.38029 10.2022 10.246 8.33666 12.5462 8.33666C14.8465 8.33666 16.7121 10.2022 16.7121 12.5026C16.7121 14.8029 14.8465 16.6685 12.5462 16.6685Z" fill="#14142B"/>
<path d="M20.7229 5.82632C20.7229 6.65427 20.0516 7.3256 19.2234 7.3256C18.3955 7.3256 17.7241 6.65427 17.7241 5.82632C17.7241 4.99817 18.3955 4.32703 19.2234 4.32703C20.0516 4.32703 20.7229 4.99817 20.7229 5.82632Z" fill="#14142B"/>
</g>
<defs>
<clipPath id="clip0_2873_1411">
<rect width="25" height="25" fill="white"/>
</clipPath>
</defs>
</svg>
