<svg width="1280" height="310" viewBox="0 0 1280 310" fill="none" xmlns="http://www.w3.org/2000/svg">
<g opacity="0.1">
<mask id="mask0_299_3567" style="mask-type:alpha" maskUnits="userSpaceOnUse" x="0" y="0" width="1280" height="310">
<rect width="1280" height="310" fill="#503AE7"/>
</mask>
<g mask="url(#mask0_299_3567)">
<path fill-rule="evenodd" clip-rule="evenodd" d="M2432.81 322.245C2401.12 322.12 2369.44 322.203 2337.88 322.245C2302.09 322.203 2266.18 322.162 2230.39 322.12C2206.33 321.869 2182.28 321.617 2158.22 321.366C2157.75 321.366 2157.28 321.617 2156.7 321.785C2154.58 321.785 2152.35 321.743 2150.24 321.743C2149.54 321.408 2148.72 320.738 2148.01 320.738C2112.22 320.404 2076.43 320.152 2040.76 319.818C2020.58 319.608 2000.39 319.399 1980.33 319.022C1975.28 318.939 1967.89 317.139 1965.66 317.809C1951.11 322.245 1939.85 319.064 1928.81 316.469C1923.65 317.85 1918.96 319.106 1914.73 320.278C1904.99 318.562 1896.19 316.971 1887.74 315.465C1883.75 317.306 1880 319.022 1874.95 321.324C1860.76 312.828 1846.21 317.641 1831.42 320.655C1828.49 318.771 1826.14 317.264 1823.44 315.506C1812.29 316.762 1801.61 317.934 1792.7 318.939C1788.47 317.474 1785.3 316.344 1782.14 315.213C1776.5 319.859 1763.13 312.744 1756.79 317.223C1756.67 317.306 1749.51 315.59 1745.88 315.674C1741.77 315.758 1737.9 316.93 1733.2 317.725C1731.91 315.925 1730.62 314.293 1729.57 312.869C1719.59 312.074 1712.79 312.451 1711.73 316.302C1703.51 314 1703.28 319.106 1695.18 318.143C1694.01 317.097 1692.6 315.716 1691.08 314.334C1690.37 314.418 1689.43 314.502 1688.96 314.586C1688.96 317.557 1688.96 320.487 1688.96 323.459C1687.79 323.501 1686.73 323.501 1685.68 323.417C1685.09 319.19 1684.39 315.004 1683.8 310.777C1672.54 314.627 1662.56 316.93 1648.13 314.125C1646.37 312.325 1644.37 310.233 1642.61 308.391C1634.99 311.237 1627.83 313.916 1621.61 316.218C1615.62 313.748 1609.41 311.195 1603.54 308.768C1596.97 311.321 1592.39 313.162 1584.65 316.051C1584.65 317.432 1584.65 320.404 1584.65 323.334C1583.82 323.375 1582.89 323.375 1582.06 323.375C1580.66 318.395 1579.25 313.414 1577.37 306.968C1573.15 310.442 1570.8 312.284 1567.98 314.586C1564.81 311.279 1562.23 308.726 1559.77 306.131C1558.48 306.214 1557.19 306.34 1555.9 306.424C1555.07 308.475 1554.25 310.526 1552.96 313.665C1551.09 311.405 1550.15 310.4 1549.21 309.312C1546.63 310.065 1544.51 310.693 1540.41 311.907C1539.59 306.926 1539 303.033 1538.41 299.141C1537.59 299.141 1536.77 299.141 1535.95 299.141C1533.84 303.703 1531.72 308.223 1528.91 314.502C1524.68 310.107 1521.75 307.303 1519.05 304.498C1518.11 304.54 1517.52 304.582 1516.23 304.582C1516.23 308.098 1516.23 311.614 1516.23 315.13C1515.41 315.13 1514.71 315.172 1514 315.172C1512.6 312.325 1511.19 309.479 1509.78 306.633C1508.72 306.717 1507.79 306.8 1506.85 306.842C1504.97 310.526 1502.97 314.251 1501.1 317.934C1499.45 309.856 1504.5 301.568 1494.99 293.155C1493.23 299.978 1491.71 306.214 1490.18 312.451C1488.89 312.409 1487.6 312.409 1486.31 312.367C1484.2 309.772 1482.09 307.177 1479.97 304.582C1478.8 304.624 1477.63 304.666 1476.34 304.708C1476.34 308.265 1476.34 311.823 1476.34 315.423C1474.69 315.423 1473.05 315.381 1471.41 315.381C1470.82 311.195 1470.12 307.052 1469.53 302.615C1466.95 303.41 1465.54 303.912 1463.66 304.456C1461.55 297.969 1459.56 291.774 1456.98 284.156C1454.98 291.9 1453.34 298.178 1451.69 304.456C1450.17 307.596 1448.64 310.777 1447.12 313.916C1446.06 313.874 1445.12 313.832 1444.07 313.79C1443.6 310.693 1443.01 307.637 1442.42 303.787C1438.44 308.098 1435.5 311.446 1432.22 314.795C1432.22 310.944 1432.22 307.052 1432.22 302.573C1419.54 304.08 1420.36 301.15 1420.25 298.68C1420.01 292.988 1420.13 287.337 1420.13 281.645C1414.38 291.062 1411.45 300.48 1408.75 309.898C1408.16 311.991 1408.16 314.125 1407.81 316.26C1407.34 316.26 1406.87 316.218 1406.4 316.218C1404.76 312.242 1403.23 308.265 1401.59 304.289C1400.3 304.331 1399.01 304.415 1397.72 304.456C1397.25 307.093 1396.9 309.73 1396.43 312.367C1395.6 312.367 1394.78 312.367 1393.96 312.367C1393.49 308.098 1392.91 303.787 1392.44 299.517C1390.68 299.559 1388.92 299.559 1387.16 299.601C1386.22 303.326 1385.4 307.052 1384.46 310.777C1382.7 310.735 1380.82 310.735 1379.18 310.693C1379.18 299.643 1379.18 288.551 1379.18 277.501C1377.53 277.501 1376.36 277.501 1375.07 277.543C1372.37 291.439 1369.67 305.294 1366.97 319.19C1365.56 319.148 1364.16 319.148 1362.98 319.106C1362.98 317.306 1362.98 315.548 1362.98 313.748C1362.98 311.949 1362.98 310.107 1362.98 308.391C1347.14 307.303 1340.1 304.624 1339.87 299.517C1339.63 293.49 1339.75 287.421 1339.75 281.394C1330.48 290.267 1334.59 300.313 1316.16 308.014C1314.52 305.419 1312.88 302.824 1311.12 300.187C1308.77 301.61 1306.31 303.075 1303.96 304.54C1302.9 304.498 1301.85 304.415 1300.67 304.373C1300.67 296.295 1300.67 288.174 1300.67 279.636C1295.39 287.421 1290.11 294.578 1283.89 303.284C1282.37 300.145 1281.78 298.638 1280.61 296.253C1274.74 299.936 1269.93 302.908 1263.59 306.926C1261.72 298.136 1264.41 290.56 1261.72 283.194C1259.96 283.194 1258.2 283.235 1256.43 283.235C1255.85 287.379 1255.14 291.523 1254.56 295.667C1253.38 295.625 1252.33 295.583 1251.04 295.583C1251.04 291.314 1251.04 287.002 1251.04 282.733C1250.69 282.733 1249.86 282.733 1249.28 282.691C1247.99 285.286 1246.7 287.881 1244.94 291.397C1240.95 289.472 1239.3 288.719 1238.6 288.342C1234.49 294.076 1230.27 299.81 1225.69 306.256C1203.86 293.365 1218.77 279.385 1210.91 266.619C1209.03 266.66 1207.15 266.702 1205.51 266.744C1205.51 275.45 1205.51 284.156 1205.51 292.862C1204.33 292.862 1203.63 292.82 1202.69 292.82C1201.87 289.514 1201.05 286.165 1200.23 282.859C1198.23 282.901 1196.24 282.942 1194.24 282.984C1191.66 295.123 1188.96 307.261 1186.38 319.399C1185.09 316.553 1182.86 313.707 1182.74 310.86C1182.27 299.643 1182.63 288.467 1182.63 277.25C1181.22 277.25 1179.81 277.25 1178.64 277.25C1178.64 289.849 1178.64 302.489 1178.64 315.088C1177.46 315.088 1176.41 315.088 1175.23 315.088C1173.36 299.81 1171.36 284.491 1169.48 269.214C1168.78 269.214 1168.07 269.214 1167.37 269.214C1166.2 278.255 1165.02 287.254 1163.97 296.295C1163.03 296.755 1161.97 297.215 1161.03 297.634C1160.68 297.466 1160.1 297.299 1160.1 297.09C1160.1 292.234 1160.1 287.379 1160.1 282.482C1158.45 282.482 1156.81 282.44 1155.17 282.44C1153.99 287.086 1153.06 291.774 1151.76 296.42C1149.53 304.498 1147.07 312.535 1144.72 320.613C1144.37 306.089 1144.02 291.565 1143.67 277.083C1141.56 277.041 1139.33 277.041 1137.21 276.999C1135.34 287.295 1137.21 297.676 1135.92 308.014C1134.51 308.014 1133.34 307.972 1131.7 307.972C1131.7 290.058 1131.7 272.144 1131.7 254.229C1127.24 266.912 1126.07 279.636 1124.66 292.318C1124.31 294.955 1122.31 297.55 1121.14 300.187C1121.14 297.048 1121.14 293.909 1121.14 290.77C1119.49 290.728 1117.73 290.728 1116.09 290.686C1113.86 295.206 1111.63 299.685 1109.52 304.205C1108.23 302.029 1106.47 299.894 1105.88 297.718C1103.89 290.853 1102.25 283.989 1100.48 277.124C1099.78 277.124 1099.19 277.166 1098.37 277.166C1098.37 292.653 1098.37 308.098 1098.37 323.585C1097.2 323.585 1095.2 323.585 1093.56 323.585C1093.68 304.289 1094.03 284.952 1093.91 265.656C1093.91 263.145 1091.21 260.675 1089.81 258.164C1086.52 269.297 1086.76 280.18 1086.29 291.062C1086.17 293.699 1083.94 296.295 1082.65 298.931C1081.24 295.29 1079.72 291.648 1078.31 288.007C1077.37 288.049 1076.43 288.091 1075.49 288.174C1073.97 293.072 1072.56 297.969 1071.03 302.908C1069.74 300.271 1067.75 297.676 1067.51 295.039C1066.92 290.393 1067.39 285.747 1067.39 281.101C1065.75 281.101 1063.99 281.059 1062.35 281.059C1056.6 293.699 1061.88 306.633 1057.42 319.357C1055.54 299.434 1053.66 279.51 1051.79 259.587C1048.27 271.683 1048.38 283.738 1048.03 295.75C1047.92 298.638 1045.8 301.527 1044.63 304.456C1043.22 302.154 1040.99 299.852 1040.64 297.508C1040.05 292.444 1040.41 287.379 1040.41 282.315C1039 282.315 1037.71 282.315 1036.3 282.315C1036.3 285.621 1036.65 288.928 1035.95 292.234C1035.83 292.695 1031.25 293.072 1028.79 293.49C1027.5 290.853 1025.39 288.258 1025.15 285.621C1024.68 278.213 1025.03 270.804 1025.03 263.396C1024.09 263.396 1023.16 263.396 1022.22 263.396C1020.22 277.878 1018.11 292.36 1016.11 306.842C1015.18 306.842 1014.35 306.8 1013.42 306.8C1013.42 304.54 1013.42 302.322 1013.42 300.062C1013.42 282.524 1013.53 264.944 1013.3 247.407C1013.3 245.272 1011.66 243.137 1010.72 240.961C1009.07 241.045 1007.31 241.128 1005.67 241.212C1005.67 243.43 1005.67 245.691 1005.67 247.909C1005.67 261.596 1005.91 275.283 1005.55 288.928C1005.44 291.314 1003.21 293.699 1001.92 296.085C1000.98 285.956 999.921 275.869 998.983 265.74C997.692 265.74 996.518 265.74 995.228 265.74C993.585 277.669 992.059 289.598 990.417 301.568C989.126 298.973 986.779 296.336 986.661 293.741C986.309 276.873 986.544 259.963 986.544 243.095C986.544 240.249 986.544 237.445 986.544 234.599C981.616 247.072 979.738 259.503 979.034 271.976C978.33 284.449 978.917 296.922 978.917 309.395C978.095 309.395 977.157 309.395 976.335 309.354C974.34 286.207 972.463 263.061 970.468 239.956C969.295 239.956 968.239 239.956 967.065 239.956C967.065 259.461 967.065 278.924 967.065 298.429C966.244 298.429 965.422 298.429 964.601 298.429C962.606 286.709 960.611 274.948 958.616 263.228C958.264 263.228 957.912 263.228 957.56 263.228C955.8 271.851 954.04 280.473 952.28 289.095C944.77 276.413 953.805 263.438 942.423 250.964C941.132 251.843 940.78 252.764 940.663 253.643C939.372 267.958 938.081 282.273 936.556 296.587C936.321 298.304 934.092 299.978 932.918 301.694C932.918 284.826 932.918 268 932.918 251.132C931.745 251.132 930.454 251.132 929.163 251.132C929.163 258.164 929.984 265.237 929.046 272.269C928.107 279.343 933.387 286.668 921.536 293.49C921.536 281.519 921.536 269.59 921.536 257.62C920.714 257.62 920.01 257.62 919.306 257.62C917.429 265.447 915.551 273.232 913.674 281.059C906.985 271.976 914.964 262.475 901.47 253.685C901.47 269.465 901.47 285.203 901.47 300.982C899.006 300.982 897.128 300.982 894.899 301.024C893.843 283.068 895.016 265.07 892.2 247.114C889.031 258.457 888.093 269.8 886.685 281.101C886.333 283.738 884.338 286.375 883.047 288.97C883.047 281.812 883.047 274.613 883.047 267.456C881.404 267.456 879.761 267.498 878.118 267.498C878.118 276.915 878.118 286.375 878.118 295.792C860.986 284.491 870.491 272.227 864.272 260.508C857.114 279.217 861.808 298.052 857.349 316.804C855.706 300.271 854.063 283.78 852.538 267.246C851.012 267.246 849.604 267.246 847.961 267.246C847.961 274.655 847.961 282.063 847.961 289.43C844.676 287.17 844.441 284.952 844.441 282.733C844.441 269.758 844.676 256.741 844.323 243.765C844.206 240.626 841.976 237.529 840.686 234.389C839.864 234.431 839.043 234.473 838.222 234.515C836.696 251.006 835.053 267.456 833.528 283.947C832.589 283.947 831.65 283.947 830.712 283.947C828.951 272.018 827.074 260.089 825.314 248.16C824.14 248.16 822.849 248.16 821.676 248.16C821.676 250.295 821.676 252.429 821.676 254.564C821.676 274.153 821.793 293.783 821.559 313.372C821.559 316.762 819.447 320.111 818.39 323.501C817.921 323.92 817.921 324.38 818.39 324.798C817.804 325.468 817.217 326.138 815.574 328.063C814.518 325.636 814.049 324.547 813.579 323.459C813.579 302.991 813.579 282.524 813.579 262.098C812.406 262.098 810.763 262.098 809.472 262.098C809.472 272.018 809.472 281.98 809.472 291.9C803.722 278.213 811.115 264.316 799.85 250.797C798.559 264.191 798.794 277.585 798.442 290.937C798.325 293.532 796.095 296.127 794.922 298.722C794.922 292.569 795.743 286.375 794.687 280.222C792.458 267.121 789.406 254.02 786.59 240.919C783.891 241.965 783.422 243.054 783.305 244.1C782.131 270.972 781.075 297.843 779.902 324.715C779.432 326.682 778.963 328.607 778.494 330.575C777.789 330.575 777.085 330.575 776.381 330.575C775.912 328.189 775.56 325.803 775.091 323.417C775.091 307.972 775.091 292.527 775.091 277.083C773.448 277.083 772.274 277.083 770.984 277.083C770.984 280.18 770.984 283.277 770.984 286.375C769.341 286.375 768.167 286.375 766.759 286.333C765.468 266.242 764.06 246.151 762.77 226.06C761.831 226.06 760.892 226.06 760.071 226.06C760.071 248.076 760.071 270.093 760.071 292.109C758.897 292.109 757.606 292.109 756.433 292.109C756.433 275.576 756.433 259.043 756.433 242.551C755.26 242.551 753.969 242.551 752.795 242.509C752.795 246.737 752.795 250.964 752.795 256.322C749.158 254.397 747.867 253.559 746.341 252.764C744.933 252.764 743.408 252.764 742.117 252.722C742.117 261.135 742.117 269.548 742.117 278.003C740.943 277.962 739.887 277.92 738.714 277.878C736.837 273.734 734.959 269.632 733.082 265.488C731.791 265.53 730.735 265.572 729.092 265.614C729.092 275.785 729.092 285.998 729.092 296.169C727.918 296.169 726.628 296.169 724.985 296.169C724.985 277.041 724.985 257.871 724.985 238.742C723.811 238.742 722.168 238.742 720.878 238.784C720.878 242.342 720.878 245.858 720.878 249.416C720.056 249.416 719.704 249.374 719.118 249.374C717.005 241.589 714.893 233.845 712.898 226.06C711.96 226.06 711.138 226.06 710.199 226.06C710.199 228.32 710.199 230.539 710.199 232.799C710.199 251.257 710.317 269.758 709.965 288.216C709.965 290.811 707.618 293.406 706.327 296.002C706.327 289.179 706.21 282.356 706.21 275.534C704.45 275.534 702.689 275.492 700.929 275.492C698.7 281.938 696.47 288.426 694.241 294.871C693.185 294.83 692.011 294.83 691.307 294.788C691.307 288.258 691.307 281.729 691.307 275.157C690.486 275.115 689.782 275.073 688.96 274.99C687.904 276.12 686.848 277.25 685.675 278.38C684.736 278.38 683.797 278.38 682.858 278.38C680.159 259.587 677.46 240.793 674.644 222C673.588 242.802 673.588 263.563 657.277 283.445C656.808 282.273 656.104 280.682 655.048 277.752C652.701 284.24 650.941 289.305 648.829 294.369C648.829 274.446 648.829 254.48 648.829 234.557C646.834 234.557 644.722 234.557 642.257 234.557C642.257 252.764 642.257 270.972 642.257 289.179C640.615 289.179 638.972 289.179 636.977 289.179C636.977 278.087 636.977 267.037 636.977 255.945C632.048 269.758 637.916 283.905 623.13 296.839C621.253 278.003 619.493 258.708 617.732 239.496C616.442 239.496 614.916 239.496 613.743 239.496C613.743 254.606 613.743 269.8 613.743 284.952C612.569 284.952 611.279 284.952 609.636 284.952C609.636 279.51 609.636 274.069 609.636 268.586C609.284 268.586 608.462 268.628 607.876 268.628C605.881 276.413 603.886 284.198 601.774 291.941C598.723 289.681 599.192 287.421 598.605 285.203C598.019 283.026 596.493 280.891 595.437 278.715C594.029 278.757 592.504 278.799 591.095 278.841C589.101 281.059 587.223 283.235 585.228 285.454C583.938 285.454 582.764 285.454 581.473 285.412C580.417 279.678 579.478 273.902 578.422 268.167C575.489 276.538 575.841 284.868 575.371 293.239C575.254 295.876 573.142 298.471 572.086 301.108C570.678 277.669 569.269 254.271 567.861 230.832C567.744 229.702 567.157 228.571 566.688 227.441C565.632 227.483 564.576 227.483 563.754 227.525C563.754 248.034 563.754 268.544 563.754 289.095C562.933 289.095 562.229 289.095 561.525 289.095C560.117 272.144 558.826 255.192 557.418 238.282C556.01 238.282 554.367 238.282 553.076 238.324C553.076 266.702 553.076 295.039 553.076 323.417C552.724 323.836 552.607 324.254 553.076 324.715C552.489 325.426 551.903 326.138 550.26 328.105C549.204 325.594 548.734 324.464 548.265 323.375C548.382 317.683 548.617 311.991 548.734 306.298C548.852 297.843 548.03 289.43 548.852 281.017C549.79 272.437 530.546 265.74 531.954 257.159C532.072 256.782 529.49 256.322 525.5 255.066C525.5 268.921 525.5 281.896 525.5 294.83C524.679 294.83 523.388 294.83 522.332 294.83C520.337 278.296 518.46 261.763 516.582 245.23C516.23 245.23 515.878 245.23 515.526 245.23C513.531 259.377 511.536 273.567 509.424 287.714C508.251 287.714 507.077 287.672 505.904 287.672C505.904 267.581 505.904 247.49 505.904 227.399C505.083 227.399 504.378 227.399 503.557 227.399C501.562 240.71 499.45 254.02 497.22 268.544C494.874 262.182 493.113 257.075 491.236 252.011C489.828 246.57 494.404 240.835 482.67 234.348C482.67 250.839 482.67 265.823 482.67 280.808C481.496 280.808 480.206 280.808 479.384 280.766C479.384 266.242 479.384 251.718 479.384 237.194C478.563 237.194 477.976 237.194 477.272 237.194C475.277 245.942 473.282 254.648 471.287 263.396C470.701 263.396 469.997 263.438 469.41 263.438C468.471 261.512 467.65 259.629 466.711 257.703C463.66 262.14 467.884 267.288 462.721 270.553C454.977 275.45 456.971 280.138 456.737 284.91C456.15 294.244 456.854 303.619 456.502 312.995C456.385 315.423 454.625 317.85 453.686 320.32C453.451 313.707 453.568 307.135 452.747 300.522C451.926 294.076 450.166 287.672 448.875 281.226C447.584 281.268 446.293 281.268 445.002 281.31C445.002 288.091 445.002 294.83 445.002 301.61C444.181 301.61 443.477 301.652 442.773 301.652C440.661 295.164 438.431 288.677 436.319 282.189C435.38 282.189 434.442 282.231 433.62 282.231C433.62 290.1 433.62 298.011 433.62 305.88C432.799 305.88 432.212 305.88 431.508 305.88C429.63 292.946 427.753 279.971 425.758 267.037C424.467 267.037 423.059 267.037 421.768 267.037C421.768 273.567 421.768 280.054 421.768 286.584C420.947 286.584 420.125 286.542 419.304 286.542C418.717 285.663 418.013 284.784 417.427 283.905C416.488 281.226 415.667 278.506 414.493 275.827C413.32 272.939 411.677 270.051 410.269 267.205C408.861 267.246 407.452 267.288 405.81 267.372C405.81 275.032 405.81 282.691 405.81 290.393C405.458 290.393 404.871 290.351 404.401 290.351C402.524 279.552 400.646 268.711 398.652 257.912C395.249 273.902 395.483 289.849 395.131 305.754C395.131 308.014 392.315 310.274 391.142 312.577C391.142 298.89 391.142 285.203 391.142 271.516C390.32 271.516 389.264 271.516 388.443 271.516C387.973 274.78 387.504 278.045 386.8 282.817C384.336 280.18 383.28 279.05 382.224 277.92C381.167 277.92 380.111 277.962 379.055 277.962C376.591 289.095 374.009 300.229 371.545 311.363C370.254 311.405 369.081 311.446 367.79 311.488C364.857 306.256 362.04 301.066 358.872 295.374C357.581 296.797 356.408 297.927 354.53 299.978C352.301 285.747 350.423 272.478 348.428 259.168C347.49 259.168 346.434 259.21 345.612 259.21C345.612 268.293 345.612 277.376 345.612 286.458C328.128 286.291 337.985 280.347 331.296 277.669C329.771 278.296 327.541 278.757 327.541 279.259C327.189 293.992 326.955 308.768 326.837 323.501C326.368 325.761 325.898 328.021 325.312 330.323C324.608 330.282 323.904 330.282 323.199 330.24C322.847 327.98 322.378 325.761 322.026 323.501C322.026 303.661 322.143 283.78 322.026 263.94C322.026 263.312 320.853 262.684 320.031 262.098C319.797 261.931 319.092 261.805 318.506 261.721C317.919 261.638 317.332 261.638 314.751 261.47C314.751 271.348 314.985 281.143 314.633 290.895C314.516 293.532 312.404 296.127 311.113 298.722C310.996 293.49 311.7 288.258 310.526 283.026C309.94 280.431 305.95 277.92 303.486 275.408C301.843 275.534 299.965 275.701 298.323 275.827C298.323 283.57 298.323 291.314 298.323 299.057C296.328 298.387 295.858 297.718 295.389 297.09C295.037 296.587 294.216 296.127 293.629 295.667C292.69 295.709 291.751 295.709 290.813 295.75C289.405 300.899 287.879 306.047 286.471 311.195C286.119 311.195 285.767 311.153 285.415 311.153C283.42 301.568 281.425 291.941 279.548 282.356C276.379 292.109 276.614 301.861 276.262 311.572C276.145 314.167 273.915 316.762 272.624 319.357C271.451 307.052 270.277 294.746 269.104 282.398C267.226 282.356 265.349 282.356 263.472 282.315C262.65 286.919 261.711 291.481 260.89 296.085C249.977 295.499 253.497 292.318 253.38 290.142C252.911 283.528 253.145 276.873 253.145 270.26C251.268 270.218 249.508 270.218 247.63 270.176C246.574 275.701 245.518 281.226 244.462 286.751C243.64 286.751 242.819 286.751 241.998 286.751C241.998 278.464 241.998 270.176 241.998 261.889C240.824 261.889 239.768 261.889 238.595 261.889C236.6 276.957 234.605 292.025 232.61 307.052C232.375 307.052 232.023 307.01 231.671 307.01C229.794 293.281 227.916 279.552 226.039 265.823C224.161 265.781 222.284 265.781 220.524 265.74C216.299 274.487 220.758 283.487 214.656 292.276C214.656 288.133 214.656 283.989 214.656 279.845C213.835 279.845 213.014 279.845 212.31 279.887C211.019 288.133 209.728 296.378 208.437 304.666C206.677 304.624 204.917 304.624 203.274 304.582C203.274 294.453 203.274 284.366 203.274 274.236C197.994 283.528 198.58 293.113 187.785 301.861C186.377 301.82 184.969 301.736 183.326 301.694C183.326 297.173 183.326 292.611 183.326 288.091C181.331 285.621 177.811 283.194 176.637 280.64C174.525 275.827 173.703 270.972 172.413 266.116C169.01 268.125 169.127 271.641 167.132 271.809C151.995 273.023 158.331 276.915 157.862 279.971C155.985 280.18 152.582 280.598 152.464 280.515C150 278.255 146.362 275.994 146.01 273.65C145.072 268 145.658 262.307 145.658 256.657C142.255 257.536 141.903 258.415 141.786 259.294C141.551 265.237 146.128 271.892 140.026 276.915C128.761 286.207 130.873 295.541 129.934 305.001C129.817 306.842 128.409 308.684 127.587 310.484C125.827 310.442 124.419 310.4 122.307 310.358C122.307 301.568 122.307 292.82 122.307 284.031C121.485 284.031 120.312 284.031 119.021 284.073C119.021 297.257 119.021 310.442 119.021 323.627C117.379 323.627 115.736 323.627 114.093 323.627C114.093 319.022 114.093 314.376 114.093 308.223C111.277 310.4 110.455 311.028 108.46 312.451C105.879 307.01 103.767 302.28 101.537 297.55C100.481 297.592 99.3075 297.592 98.4861 297.634C98.4861 302.154 98.4861 306.675 98.4861 311.195C95.2006 305.712 95.9045 300.271 95.2006 294.83C94.4965 289.723 98.4862 284.324 92.267 279.468C90.7415 279.51 89.2159 279.552 87.5731 279.594C87.5731 284.742 87.5731 289.891 87.5731 295.039C87.2212 295.039 86.165 295.039 85.4609 295.039C81.7059 285.956 77.9509 276.915 74.0786 267.832C73.3745 267.832 72.9052 267.874 72.0837 267.874C72.0837 276.455 72.0837 285.077 72.0837 293.658C68.4462 289.639 69.2675 285.621 68.446 281.603C67.7421 277.794 65.3951 273.985 63.4003 269.214C55.3036 278.966 70.4409 288.76 51.0792 297.425C49.7885 295.541 48.8497 294.202 48.0283 293.072C34.1818 299.015 38.1714 305.963 37.702 312.702C37.4674 316.344 37.5847 319.985 37.4673 323.668C36.2939 323.71 35.2378 323.668 34.1818 323.585C30.6614 316.051 27.1411 308.516 23.7382 300.982C22.2126 300.982 20.6872 300.982 19.0444 301.024C19.0444 307.177 19.0444 313.33 19.0444 319.441C17.4016 319.441 15.7587 319.399 14.1159 319.399C14.1159 308.098 14.1159 296.755 14.1159 285.454C13.2945 285.454 12.7078 285.454 12.0037 285.454C9.07013 289.974 6.13654 294.495 3.20294 299.015C3.08557 297.634 4.37634 295.792 2.38153 294.997C-7.00598 291.355 -3.25098 286.961 -4.77643 282.859C-6.0672 279.385 -10.1743 276.036 -12.0518 272.562C-13.1078 270.469 -12.2864 268.251 -12.2864 266.074C-13.6946 266.033 -15.2201 265.991 -16.6282 265.949C-17.6843 268.544 -19.5618 271.097 -19.6791 273.692C-20.1485 282.817 -20.0311 291.941 -20.2658 301.024C-20.2658 301.275 -21.5566 301.527 -21.5566 301.568C-24.4902 300.313 -27.3065 299.015 -32.3522 296.797C-35.7552 302.322 -38.1021 306.256 -40.801 310.693C-43.0305 305.001 -45.0253 299.852 -47.0202 294.704C-48.311 294.746 -49.3671 294.788 -51.0099 294.788C-51.0099 299.434 -51.0099 304.122 -51.0099 308.768C-52.1833 308.768 -53.4741 308.768 -54.6475 308.768C-54.6475 304.163 -54.6475 299.517 -54.6475 294.913C-54.9996 294.913 -55.821 294.913 -56.4077 294.955C-58.0505 298.638 -59.6934 302.364 -61.3362 306.047C-63.0963 305.963 -64.8564 305.921 -66.382 305.838C-66.382 301.778 -66.382 297.718 -66.382 293.658C-67.2034 293.658 -67.9074 293.699 -68.7288 293.699C-69.3156 296.42 -69.9022 299.099 -70.489 301.82C-71.6624 301.82 -72.9532 301.778 -73.7746 301.778C-73.7746 297.215 -73.7746 292.653 -73.7746 288.091C-74.948 288.091 -75.5347 288.091 -76.3561 288.133C-76.9429 291.355 -77.5296 294.578 -78.1163 297.843C-81.2846 292.444 -82.6927 287.044 -85.2744 281.729C-85.7437 280.724 -90.6721 279.971 -93.6057 279.092C-95.3658 280.054 -97.126 281.059 -99.0035 282.063C-101.468 280.347 -103.815 278.715 -106.161 277.041C-106.983 277.124 -107.922 277.166 -108.743 277.25C-108.743 284.073 -108.743 290.895 -108.743 297.718C-109.565 297.718 -110.268 297.718 -110.973 297.676C-111.559 295.792 -112.146 293.867 -112.733 291.983C-123.411 302.447 -118.365 313.162 -119.069 323.794C-119.539 324.212 -119.421 324.673 -119.069 325.091C-119.421 328.231 -119.773 331.412 -120.243 334.551C-121.534 330.951 -122.707 327.352 -123.998 323.752C-123.998 312.074 -123.998 300.396 -123.998 288.76C-125.993 288.719 -127.87 288.677 -129.748 288.635C-130.452 293.574 -131.156 298.513 -131.977 303.452C-132.564 303.452 -133.033 303.41 -133.62 303.41C-134.559 302.28 -135.497 301.15 -136.788 299.601C-138.314 301.234 -139.37 302.364 -140.543 303.494C-141.365 303.452 -142.303 303.41 -143.125 303.368C-143.125 293.741 -143.125 284.073 -143.125 274.446C-144.298 274.404 -145.237 274.32 -146.41 274.278C-151.691 279.887 -156.854 285.454 -162.135 291.062C-174.808 281.938 -166.124 271.725 -171.053 261.68C-173.517 264.568 -175.629 266.995 -177.741 269.423C-178.915 269.339 -180.206 269.297 -181.496 269.214C-181.496 262.266 -181.496 255.317 -181.496 248.369C-183.139 248.327 -184.547 248.286 -186.073 248.286C-187.011 251.09 -188.772 253.852 -188.772 256.657C-189.006 271.474 -188.889 286.333 -188.889 301.15C-188.889 303.201 -188.889 305.252 -188.889 307.303C-190.062 307.303 -191.705 307.261 -193.348 307.261C-193.348 294.034 -193.348 280.766 -193.348 267.539C-193.7 267.539 -194.521 267.539 -195.108 267.539C-196.868 280.933 -198.746 294.327 -200.623 308.265C-218.812 304.833 -207.781 299.057 -214 294.997C-216.465 297.508 -218.694 299.769 -220.924 302.029C-221.98 301.987 -222.801 301.945 -224.092 301.903C-224.092 294.118 -224.092 286.333 -224.092 278.548C-224.913 278.506 -225.735 278.506 -226.556 278.464C-230.429 281.226 -234.184 283.989 -239.581 287.84C-239.581 283.068 -239.581 279.468 -239.581 275.827C-256.714 276.497 -246.035 270.553 -251.316 269.13C-254.953 269.297 -259.295 269.548 -259.295 269.465C-260.469 267.498 -261.642 265.488 -261.759 263.479C-262.111 258.498 -261.877 253.518 -261.877 248.537C-262.698 248.537 -263.52 248.579 -264.341 248.579C-266.453 255.903 -268.448 263.228 -270.678 271.181C-273.024 269.883 -274.081 269.214 -276.662 267.832C-278.657 282.942 -280.652 297.132 -282.529 311.321C-283.233 311.321 -283.82 311.279 -284.524 311.279C-284.876 308.6 -285.228 305.963 -285.58 303.284C-286.402 303.284 -287.106 303.284 -287.927 303.243C-288.514 306.968 -288.983 310.651 -289.57 314.376C-290.391 314.376 -291.095 314.376 -291.917 314.376C-292.503 311.112 -293.09 307.805 -293.56 304.54C-294.616 304.54 -295.437 304.54 -296.611 304.54C-296.611 309.102 -296.611 313.665 -296.611 318.227C-297.784 318.227 -299.427 318.227 -300.718 318.227C-300.718 307.847 -300.718 297.508 -300.718 287.128C-301.539 287.128 -302.243 287.17 -302.947 287.17C-305.059 295.248 -307.172 303.326 -309.166 311.405C-309.636 311.363 -310.105 311.363 -310.574 311.321C-317.967 291.774 -325.36 272.227 -332.752 252.639C-333.574 252.639 -334.513 252.639 -335.334 252.639C-335.334 271.306 -335.334 290.016 -335.334 308.684C-338.15 307.805 -338.737 306.926 -338.737 306.047C-340.028 282.356 -341.319 258.666 -342.609 234.975C-342.727 233.552 -343.313 232.171 -343.665 230.748C-346.364 236.482 -346.13 242.133 -346.364 247.783C-346.482 249.29 -347.303 252.095 -348.594 252.136C-362.206 252.68 -357.629 256.28 -357.629 258.791C-357.981 274.069 -357.747 289.388 -357.864 304.666C-357.864 306.382 -358.451 308.098 -358.685 309.856C-361.619 307.512 -361.384 305.252 -361.736 302.991C-362.088 300.815 -362.91 298.638 -363.614 296.42C-365.374 296.504 -367.017 296.546 -368.66 296.587C-368.66 301.527 -368.66 306.466 -368.66 312.702C-390.251 303.201 -375.583 292.988 -384.149 284.031C-384.149 297.215 -384.149 310.442 -384.149 323.627C-384.501 326.431 -384.97 329.235 -385.44 332.04C-386.261 332.04 -386.965 332.04 -387.787 332.04C-388.256 329.235 -388.608 326.431 -389.077 323.627C-388.96 316.092 -386.965 308.558 -390.368 301.15C-392.011 301.15 -393.536 301.192 -395.179 301.192C-395.883 302.824 -396.587 304.456 -397.174 306.089C-398.23 306.047 -399.286 306.047 -400.46 306.005C-400.46 293.113 -400.46 280.222 -400.46 267.33C-401.633 267.33 -402.455 267.33 -403.745 267.33C-403.745 271.097 -403.745 274.906 -403.745 278.673C-404.567 278.673 -405.271 278.673 -405.858 278.673C-407.735 274.529 -409.613 270.344 -411.607 266.2C-412.898 266.242 -414.306 266.284 -415.597 266.367C-415.597 271.767 -415.597 277.208 -415.597 282.608C-416.419 282.608 -417.123 282.608 -417.827 282.608C-419.822 268.084 -421.934 253.518 -424.046 238.994C-425.102 238.994 -426.158 239.035 -427.449 239.035C-427.449 254.48 -427.449 269.925 -427.449 285.37C-434.372 277.794 -425.219 269.548 -437.423 262.266C-438.597 274.822 -438.362 287.379 -438.714 299.894C-438.831 302.28 -440.943 304.666 -442.117 307.052C-442.821 305.294 -443.408 303.494 -444.112 301.736C-456.785 309.354 -453.265 317.306 -453.499 325.05C-455.142 324.589 -456.667 324.087 -458.31 323.627C-458.31 308.182 -458.31 292.737 -458.31 277.292C-459.132 277.292 -460.422 277.292 -461.479 277.292C-463.356 283.612 -465.116 289.974 -466.876 296.295C-467.346 296.295 -467.815 296.295 -468.167 296.295C-468.871 293.532 -469.575 290.811 -470.162 288.049C-470.866 288.049 -471.453 288.091 -472.157 288.091C-472.626 291.355 -473.096 294.662 -473.565 297.927C-474.504 298.094 -475.56 298.262 -476.499 298.429C-477.789 297.173 -479.08 295.918 -480.371 294.704C-481.896 295.039 -483.539 295.416 -484.713 295.75C-484.713 299.099 -484.713 302.447 -484.713 305.796C-485.886 305.796 -486.825 305.838 -487.881 305.838C-490.932 289.514 -494.1 273.148 -497.151 256.824C-498.09 256.824 -499.263 256.866 -500.085 256.866C-500.085 268.209 -500.085 279.552 -500.085 290.853C-500.906 290.853 -501.728 290.853 -502.901 290.853C-502.901 286.165 -502.901 281.519 -502.901 277.669C-509.472 276.162 -513.462 275.157 -518.742 273.943C-518.742 285.077 -518.742 296.002 -518.742 306.968C-522.028 300.187 -525.079 293.365 -528.365 286.123C-533.762 291.816 -525.196 297.969 -538.221 302.824C-538.221 290.142 -538.221 277.459 -538.221 264.777C-541.507 268.042 -538.339 272.604 -543.15 274.362C-552.537 277.794 -552.068 281.477 -552.42 285.37C-552.42 291.021 -552.42 296.671 -552.42 302.531C-573.19 300.982 -559.695 295.039 -567.44 291.481C-568.144 295.206 -568.848 298.513 -569.552 301.778C-570.96 301.778 -572.251 301.736 -573.659 301.736C-574.95 287.044 -576.241 272.353 -577.297 259.796C-583.986 275.743 -591.613 293.699 -599.24 311.656C-600.179 311.614 -601.118 311.572 -602.056 311.572C-602.995 309.102 -603.817 306.591 -604.755 304.122C-606.516 304.122 -608.276 304.122 -610.036 304.08C-610.505 311.07 -610.975 318.06 -611.444 325.091C-612.383 325.05 -613.204 325.008 -614.143 324.966C-614.612 324.547 -614.964 324.129 -615.434 323.668C-615.786 317.097 -612.265 310.4 -617.546 303.954C-619.189 303.954 -620.832 303.996 -622.357 303.996C-622.357 309.228 -622.357 314.46 -622.357 319.65C-623.53 319.65 -624.821 319.608 -625.995 319.608C-625.995 315.799 -625.995 311.991 -625.995 307.721C-631.744 308.475 -635.265 308.977 -639.606 309.563C-641.249 306.717 -642.775 304.289 -644.183 301.861C-645.591 301.903 -646.999 301.945 -648.29 301.987C-648.994 305.963 -649.698 309.981 -650.637 315.255C-657.091 308.642 -647.703 302.531 -661.902 297.759C-661.902 300.899 -661.902 304.038 -661.902 307.135C-662.723 307.135 -663.427 307.093 -664.249 307.093C-664.718 304.708 -665.07 302.322 -665.539 299.936C-666.713 299.894 -667.769 299.852 -668.942 299.81C-672.111 305.461 -675.162 311.07 -678.33 316.846C-682.085 316.302 -685.253 315.841 -689.36 315.255C-690.768 317.223 -691.824 318.813 -692.998 320.404C-693.819 319.943 -694.758 319.441 -695.579 318.98C-698.982 319.399 -702.385 319.776 -704.028 319.985C-707.783 318.353 -710.6 315.967 -714.472 315.674C-721.16 315.172 -722.921 310.107 -732.66 313.246C-737.823 307.47 -746.155 311.488 -750.496 312.995C-762.935 317.348 -773.848 320.362 -783.705 320.99C-787.46 319.608 -791.215 318.185 -795.908 316.427C-798.021 317.767 -799.429 318.646 -800.954 319.566C-814.566 317.055 -818.321 317.264 -833.811 319.148C-843.667 320.32 -854.58 321.45 -864.555 321.115C-887.202 320.362 -909.497 320.78 -931.91 321.827C-938.129 322.12 -944.7 322.036 -950.92 321.701C-963.945 320.99 -976.735 319.525 -989.995 321.869C-992.929 322.413 -998.327 321.283 -1002.43 320.906C-1002.43 321.827 -1002.43 322.748 -1002.43 323.627C-1002.43 324.087 -1002.43 324.547 -1002.43 325.008C-1002.43 325.468 -1002.43 325.929 -1002.43 326.389C-983.659 328.524 -965.236 328.607 -946.109 326.808C-937.777 326.012 -928.39 326.431 -919.589 326.682C-915.599 326.808 -909.967 327.394 -908.207 328.44C-903.63 331.202 -897.411 330.282 -891.544 329.905C-876.641 328.9 -861.738 327.728 -846.836 326.682C-838.622 326.096 -832.285 326.64 -828.178 329.821C-826.535 331.077 -817.617 332.626 -816.209 332.207C-805.413 329.026 -791.919 333.212 -781.123 330.282C-779.715 329.905 -774.317 331.37 -773.026 331.621C-766.925 329.654 -761.761 327.98 -753.899 325.426C-749.206 330.282 -745.803 333.881 -742.165 337.648C-741.578 336.016 -741.109 334.384 -740.053 331.537C-738.058 333.839 -737.119 334.844 -735.946 336.267C-730.9 336.1 -723.859 331.956 -720.222 338.444C-718.696 335.304 -717.992 333.923 -717.288 332.5C-716.349 332.291 -715.293 332.04 -714.355 331.83C-714.12 332.751 -713.885 333.672 -713.768 334.593C-712.712 334.342 -711.89 334.091 -710.717 333.839C-710.717 332.709 -710.717 331.579 -710.717 330.491C-708.722 333.379 -706.61 336.267 -703.559 340.704C-700.743 337.23 -699.1 335.137 -696.284 331.663C-695.462 335.89 -694.993 338.611 -694.523 340.955C-686.896 337.774 -679.503 334.76 -671.055 331.244C-668.238 335.346 -665.774 339.113 -663.075 342.922C-662.254 342.88 -661.315 342.838 -660.494 342.755C-660.494 336.895 -660.494 330.993 -660.494 325.133H-658.851L-657.208 325.175C-655.096 331.077 -661.432 337.397 -648.759 342.922C-648.759 339.155 -648.759 335.43 -648.759 331.663C-648.407 331.663 -647.821 331.663 -647.234 331.663C-645.239 337.23 -643.362 342.838 -641.249 348.866C-637.142 344.094 -633.739 340.118 -630.219 336.141C-628.341 341.625 -626.464 347.108 -624.586 352.549C-623.765 352.549 -622.944 352.549 -622.122 352.549C-622.122 347.903 -622.122 343.257 -622.122 338.611C-621.301 338.611 -620.597 338.611 -619.775 338.569C-617.663 343.592 -615.551 348.615 -613.321 353.637C-610.975 349.368 -611.444 345.182 -610.857 340.955C-610.271 337.481 -608.393 334.007 -607.102 330.533C-604.99 335.848 -613.204 341.918 -597.128 346.312C-594.781 343.341 -592.434 340.369 -590.087 337.439C-589.031 337.481 -587.975 337.565 -587.154 337.606C-587.154 344.513 -587.154 351.419 -587.154 358.283C-575.302 353.009 -583.751 346.857 -578.001 340.662C-575.771 349.535 -573.542 357.739 -571.43 365.943C-570.256 365.901 -569.083 365.901 -567.909 365.859C-567.909 361.339 -567.909 356.86 -567.909 352.34C-566.736 352.34 -565.445 352.34 -564.272 352.382C-564.272 358.367 -564.272 364.352 -564.272 370.338C-563.098 370.338 -561.808 370.338 -560.634 370.338C-560.634 363.432 -560.634 356.525 -560.634 349.619C-559.813 349.619 -558.639 349.619 -557.701 349.619C-557.231 352.005 -556.879 354.391 -556.41 356.777C-553.241 354.14 -553.711 351.503 -553.124 348.908C-552.303 345.141 -550.895 341.373 -549.604 337.606C-549.604 347.568 -549.604 357.53 -549.604 367.492C-547.961 367.492 -546.201 367.492 -544.441 367.492C-543.619 352.884 -542.915 338.276 -542.094 323.71C-541.624 322.245 -541.155 320.78 -540.686 319.315C-539.982 319.315 -539.278 319.315 -538.573 319.315C-538.221 320.738 -537.869 322.162 -537.4 323.585C-536.579 337.816 -541.507 352.13 -531.298 366.236C-530.125 364.018 -530.125 361.799 -530.125 359.581C-530.125 349.117 -530.242 338.611 -530.007 328.147C-530.007 326.18 -528.951 324.171 -528.365 322.203C-527.66 322.496 -526.839 322.748 -526.252 323.041C-525.9 323.208 -525.9 323.459 -525.666 323.668C-524.727 330.993 -523.671 338.36 -522.732 345.685C-521.793 345.685 -520.855 345.685 -519.916 345.685C-517.686 340.202 -515.574 334.677 -513.345 329.193C-512.171 329.235 -511.232 329.277 -509.942 329.277C-509.942 338.737 -509.942 348.238 -509.942 358.367C-505.483 352.549 -501.493 347.568 -497.973 343.09C-491.871 350.247 -485.534 357.739 -479.315 365.231C-474.621 362.72 -472.861 360.334 -472.744 357.907C-472.274 352.214 -472.861 346.48 -472.392 340.787C-472.039 337.481 -470.162 334.174 -468.989 330.826C-468.989 346.647 -468.989 362.469 -468.989 378.332C-468.167 378.332 -466.994 378.332 -466.055 378.332C-464.06 367.366 -462.065 356.4 -459.953 345.434C-459.014 345.434 -457.958 345.434 -457.137 345.434C-457.137 352.716 -457.137 360.041 -457.137 367.324C-455.494 367.324 -454.321 367.324 -452.912 367.324C-451.739 357.404 -450.566 347.484 -449.392 337.565C-446.224 342.964 -443.056 348.405 -439.653 354.223C-437.892 343.676 -436.25 333.63 -434.49 323.585C-434.02 321.366 -433.551 319.106 -433.081 316.888C-432.377 316.93 -431.556 316.93 -430.852 316.971C-430.5 319.19 -430.148 321.45 -429.678 323.668C-429.678 340.16 -429.678 356.609 -429.678 373.1C-424.398 364.352 -427.684 355.479 -419.704 346.647C-413.25 339.532 -415.597 331.454 -413.954 323.794L-412.898 323.836H-411.842C-411.607 331.119 -411.607 338.402 -410.786 345.685C-410.551 347.568 -408.909 350.749 -406.092 351.042C-397.526 351.963 -399.756 354.014 -399.638 355.856C-399.404 360.669 -399.521 365.441 -399.521 370.254C-398.582 370.212 -397.644 370.212 -396.705 370.17C-395.883 369.208 -395.179 368.245 -394.358 367.324C-393.067 367.366 -391.659 367.408 -390.486 367.45C-390.486 379.421 -390.486 391.35 -390.486 403.32C-388.491 403.32 -386.379 403.32 -384.736 403.32C-384.736 386.452 -384.736 369.584 -384.736 352.716C-383.093 352.716 -381.45 352.758 -379.807 352.758C-379.807 366.362 -379.807 379.965 -379.807 393.61C-378.986 393.652 -378.047 393.652 -377.226 393.694C-373.588 384.946 -369.95 376.198 -366.313 367.575C-365.374 368.078 -364.318 368.789 -361.032 370.673C-358.92 363.808 -357.277 358.116 -355.517 352.465C-355.048 352.465 -354.578 352.465 -354.109 352.465C-353.64 356.191 -353.053 359.916 -352.584 363.641C-342.023 350.456 -346.599 337.104 -346.012 323.794C-345.543 320.99 -345.191 318.185 -344.721 315.381C-343.9 315.381 -343.196 315.381 -342.375 315.381C-342.023 318.185 -341.553 321.031 -341.201 323.836C-340.614 336.686 -339.91 349.494 -339.441 362.343C-337.564 362.343 -335.803 362.343 -333.691 362.343C-333.691 352.214 -333.691 342.043 -333.691 331.872C-332.518 331.872 -331.227 331.872 -330.054 331.872C-330.054 343.801 -330.054 355.688 -330.054 367.534C-328.411 367.534 -327.12 367.575 -325.712 367.575C-324.186 360.711 -322.778 353.847 -321.135 346.982C-320.314 346.982 -319.493 346.982 -318.671 346.982C-318.671 357.446 -318.671 367.952 -318.671 378.416C-317.498 378.416 -316.911 378.416 -315.972 378.416C-315.151 376.156 -314.329 373.938 -313.508 371.677C-312.452 371.719 -311.279 371.719 -310.105 371.761C-310.105 378.039 -310.105 384.318 -310.105 390.596C-309.753 390.554 -309.166 390.554 -308.697 390.512C-306.937 386.452 -305.177 382.392 -303.416 378.332C-301.891 378.374 -300.365 378.416 -299.075 378.458C-299.075 382.518 -299.075 386.62 -299.075 390.68C-297.432 390.68 -296.258 390.68 -294.968 390.638C-294.968 384.695 -294.968 378.709 -294.968 371.342C-292.151 373.561 -291.095 374.314 -289.805 375.235C-288.279 374.105 -287.106 373.142 -285.815 372.096C-284.524 373.268 -283.468 374.23 -282.412 375.193C-281.004 375.151 -279.596 375.109 -278.07 375.068C-274.198 360.92 -277.836 346.689 -276.075 332.542C-274.902 334.928 -272.907 337.355 -272.79 339.741C-272.438 349.954 -272.672 360.167 -272.672 370.38C-259.295 357.739 -268.448 344.555 -263.168 330.323C-257.066 341.708 -266.922 352.172 -253.897 361.883C-253.897 349.159 -253.897 336.434 -253.897 323.752C-253.897 318.311 -253.897 312.869 -253.897 307.428C-252.255 307.428 -250.612 307.428 -248.969 307.47C-248.969 312.911 -248.969 318.353 -248.969 323.794C-248.969 338.318 -248.969 352.884 -248.969 367.408C-247.796 367.408 -246.153 367.408 -244.745 367.45C-243.102 359.874 -241.459 352.34 -239.933 344.764C-230.429 350.54 -240.051 357.153 -226.204 363.976C-226.204 355.981 -226.204 349.494 -226.204 343.006C-222.919 348.447 -223.271 353.888 -222.449 359.288C-221.51 364.478 -227.026 370.003 -215.291 374.775C-215.291 369.584 -215.291 364.436 -215.291 359.246C-203.909 369.919 -203.205 381.053 -203.44 392.187C-202.031 392.187 -200.623 392.145 -199.45 392.145C-199.45 385.322 -199.45 378.5 -199.45 370.505C-196.164 372.807 -194.521 373.812 -191.47 375.821C-189.828 373.854 -188.654 373.059 -188.654 372.221C-187.363 356.065 -186.073 339.95 -184.899 323.794C-183.374 324.254 -181.848 324.673 -180.205 325.133C-179.501 339.323 -184.782 353.637 -172.93 367.701C-172.93 357.614 -172.93 347.526 -172.93 337.439C-171.757 337.439 -170.466 337.439 -169.292 337.439C-169.292 351.67 -169.292 365.859 -169.292 380.09C-167.65 380.09 -165.772 380.132 -164.012 380.132C-162.252 364.938 -160.374 349.787 -158.614 334.593C-156.971 334.593 -155.446 334.635 -153.451 334.635C-153.451 346.103 -153.451 357.572 -153.451 369.04C-153.099 369.04 -152.278 369.04 -151.691 369.04C-150.165 367.115 -148.64 365.19 -147.114 363.264C-145.706 363.306 -144.416 363.39 -142.89 363.432C-142.89 370.338 -142.89 377.202 -142.89 384.109C-141.717 384.109 -140.074 384.109 -138.431 384.109C-138.431 374.44 -138.431 364.813 -138.431 355.144C-137.61 355.144 -136.436 355.144 -135.38 355.102C-134.911 357.488 -134.441 359.832 -133.972 362.218C-132.916 362.218 -131.977 362.218 -130.804 362.218C-130.804 358.032 -130.804 353.847 -130.804 349.661C-129.63 349.661 -128.339 349.661 -127.166 349.703C-127.166 364.729 -127.166 379.797 -127.166 394.824C-125.523 394.824 -123.88 394.824 -122.355 394.824C-121.416 381.262 -120.595 367.659 -119.421 354.098C-119.187 351.461 -117.427 348.782 -116.136 346.145C-116.136 355.144 -116.136 364.143 -116.136 373.142C-115.314 373.142 -114.141 373.142 -113.085 373.142C-109.212 365.315 -105.34 357.53 -101.233 349.117C-100.529 353.763 -99.825 357.907 -99.2382 362.092C-98.0648 362.092 -96.8914 362.05 -95.7179 362.05C-95.7179 352.926 -95.7179 343.801 -95.7179 334.677C-94.8965 334.677 -93.7231 334.677 -92.4323 334.677C-92.4323 349.787 -92.4323 364.897 -92.4323 380.007C-91.6108 380.048 -90.4374 380.048 -89.3813 380.09C-86.3304 373.142 -83.3968 366.152 -80.3459 359.204C-79.4071 359.246 -78.5858 359.288 -77.647 359.372C-77.1776 360.711 -76.8256 362.092 -76.4736 363.432C-75.1827 367.157 -74.0093 370.84 -72.7185 374.565C-71.5451 374.523 -70.3716 374.523 -69.1982 374.482C-69.1982 367.199 -69.1982 359.958 -69.1982 352.675C-62.2749 367.659 -71.1931 382.895 -57.8159 397.712C-57.8159 392.187 -57.8159 386.62 -57.8159 380.132C-54.5302 381.765 -53.4741 382.392 -50.4232 383.983C-50.4232 373.352 -50.6579 363.85 -50.1885 354.349C-50.0712 351.963 -47.8417 349.619 -46.5508 347.233C-44.556 359.246 -53.3568 371.761 -31.0615 383.899C-24.3729 367.324 -18.2709 351.796 -12.1691 336.937C-12.1691 347.15 -12.1691 358.116 -12.1691 369.124C-11.3477 369.124 -10.8784 369.124 -10.1743 369.124C-8.17944 364.52 -6.18457 359.916 -4.30707 355.312C5.66711 356.986 2.61621 360.251 3.32025 363.097C4.14166 366.487 5.19775 369.877 6.13654 373.268C8.01404 373.226 9.77417 373.184 11.769 373.142C11.769 362.762 11.769 352.382 11.769 342.001C12.9424 342.001 14.2333 342.043 15.4067 342.043C15.4067 357.823 15.4067 373.603 15.4067 389.424C19.8658 385.49 21.1566 381.513 22.5647 377.537C23.0341 376.03 23.6208 374.482 24.2075 372.975C24.9116 373.268 25.7329 373.519 26.3197 373.812C26.6718 373.979 26.7891 374.23 26.9064 374.44C29.3706 380.927 31.8348 387.415 34.4164 393.903C35.3551 393.861 36.2939 393.861 37.2327 393.819C37.702 391.852 38.0541 389.927 38.5234 387.959C39.1101 387.959 39.5795 387.959 40.1663 387.959C41.3397 389.801 42.6304 391.601 43.8038 393.442C45.3293 393.442 46.8549 393.401 48.4977 393.401C48.4977 380.3 48.4977 367.241 48.4977 354.14C49.671 354.14 50.7272 354.14 51.9006 354.14C53.8955 368.245 55.8903 382.351 57.8851 396.498C58.9412 396.498 60.3494 396.498 61.1708 396.498C61.1708 377.788 61.1708 359.037 61.1708 340.327C66.4513 348.489 62.3442 356.86 68.446 364.938C78.0682 353.637 63.1656 341.373 83.9354 329.361C83.9354 343.006 83.9354 355.437 83.9354 367.868C85.1089 367.868 86.3998 367.868 87.5731 367.868C87.5731 364.562 87.5731 361.255 87.5731 357.907C88.3945 357.907 88.9813 357.865 89.6853 357.865C91.9149 360.795 94.2617 363.725 96.4913 366.655C97.1953 366.613 97.8994 366.571 98.7208 366.529C99.1902 362.887 99.6595 359.288 100.246 355.646C102.006 355.646 103.649 355.646 105.409 355.646C107.639 365.65 109.751 375.612 111.981 385.615C112.802 385.615 113.741 385.615 114.562 385.615C114.562 380.467 114.562 375.319 114.562 370.17C116.557 370.129 118.317 370.045 120.195 370.003C121.368 375.151 122.659 380.341 123.832 385.49C124.536 385.448 125.24 385.448 125.945 385.406C127.939 375.821 129.817 366.236 131.812 356.609C132.046 356.609 132.281 356.609 132.516 356.609C134.041 363.473 135.567 370.338 137.092 377.16C138.97 377.119 140.73 377.077 142.842 377.035C142.842 368.915 142.842 360.795 142.842 352.675C143.663 352.675 144.837 352.716 146.128 352.716C146.128 358.744 146.128 364.813 146.128 370.84C147.771 370.882 149.296 370.924 150.939 371.008C153.168 362.553 155.515 354.056 157.745 345.601C158.566 345.601 159.388 345.643 160.092 345.643C162.086 355.688 164.199 365.692 166.193 375.737C166.78 375.737 167.25 375.737 168.071 375.695C168.071 358.409 168.071 341.122 168.071 323.836C168.071 320.613 168.071 317.39 168.071 314.209C169.714 317.432 171.239 320.655 172.882 323.878C172.882 329.821 172.413 335.723 172.765 341.666C173.117 347.568 170.887 353.554 174.76 359.874C179.805 358.451 182.739 357.697 188.371 356.065C188.371 369.459 188.371 381.513 188.371 393.61C189.545 393.61 190.836 393.61 192.009 393.61C192.009 386.829 192.009 380.048 192.009 373.226C193.183 373.226 194.239 373.184 195.412 373.184C198.698 379.211 201.983 385.197 205.269 391.224C214.07 382.351 209.845 373.268 210.667 364.311C211.371 355.395 210.784 346.48 210.784 337.565C212.075 337.565 213.366 337.565 214.656 337.565C214.656 348.908 214.422 360.251 214.774 371.635C214.891 374.063 216.886 376.491 217.942 378.918C219.468 378.835 220.993 378.793 222.519 378.709C222.519 370.003 222.519 361.297 222.519 352.591C229.442 366.278 229.442 366.278 237.538 369.417C237.538 354.433 237.538 339.867 237.538 325.301L239.416 325.217L241.294 325.259C241.294 343.508 241.294 361.757 241.294 380.048C243.288 380.09 245.518 380.09 247.63 380.132C251.033 367.45 247.63 354.558 249.86 341.834C251.15 341.834 252.324 341.876 253.967 341.876C253.967 347.317 253.967 352.758 253.967 358.2C254.788 358.2 255.962 358.158 256.783 358.116C256.783 356.316 256.783 354.558 256.783 352.758C267.344 352.256 263.824 355.144 264.293 356.818C266.288 364.101 267.931 371.426 269.808 379.379C272.155 375.988 274.032 373.268 275.793 370.505C279.196 377.202 282.599 383.941 285.649 389.926C288.7 383.774 291.986 377.035 295.272 370.296C296.562 368.287 298.675 366.236 298.909 364.227C299.496 360.292 299.144 356.358 299.144 352.423C300.435 352.423 301.608 352.423 303.251 352.423C303.251 357.111 303.251 361.799 303.251 366.487C303.603 366.487 304.307 366.445 304.894 366.445C306.771 361.841 308.532 357.279 310.526 352.675C310.526 366.696 310.526 380.76 310.526 394.782C311.7 394.782 313.343 394.782 314.868 394.782C316.511 381.22 318.036 367.659 319.679 354.098C320.735 354.098 321.557 354.098 322.848 354.098C322.848 365.357 322.848 376.616 322.848 387.876C323.2 387.876 324.021 387.834 324.608 387.834C325.898 381.388 327.307 374.984 328.597 368.58C329.771 368.58 330.944 368.58 332.118 368.58C333.174 370.045 334.113 371.51 334.582 372.096C337.633 368.58 341.036 364.645 344.556 360.711C345.143 358.409 345.73 356.065 346.316 353.763C350.658 364.98 353.826 376.156 357.112 387.29C357.229 387.583 358.168 387.834 359.341 388.42C360.163 386.118 360.867 384.276 361.454 382.392C362.51 382.434 363.566 382.434 364.739 382.476C364.739 394.405 364.739 406.334 364.739 418.221C368.025 415.542 367.79 412.822 368.025 410.143C369.198 398.13 369.902 386.076 372.015 374.063C373.305 366.864 376.943 359.706 379.525 352.549C381.519 359.413 383.397 366.278 385.392 373.184C385.978 373.184 386.682 373.226 387.035 373.226C387.035 369.04 387.035 364.855 387.035 360.669C388.677 360.669 389.851 360.669 391.494 360.627C391.494 367.91 391.494 375.235 391.494 382.518C392.667 382.518 393.958 382.476 395.131 382.476C395.131 372.054 395.131 361.632 395.131 351.252C402.055 358.367 393.489 366.194 405.692 374.272C405.692 356.609 405.692 340.202 405.692 323.836C405.692 319.734 405.692 315.674 405.692 311.572C407.335 311.572 408.978 311.614 410.621 311.614C410.621 315.674 410.621 319.734 410.621 323.794C410.621 339.783 410.621 355.772 410.621 371.761C411.442 371.761 412.146 371.761 412.85 371.803C413.672 370.296 414.61 368.747 415.901 366.445C417.661 368.454 418.6 369.501 419.539 370.505C420.595 370.422 421.651 370.338 422.824 370.254C422.824 362.636 422.824 354.977 422.824 347.359C423.176 347.359 423.763 347.401 424.233 347.401C426.227 358.283 428.222 369.166 430.217 380.048C430.921 380.007 431.508 380.007 432.212 379.965C433.033 378.96 433.855 377.956 434.676 376.993C435.615 376.993 436.671 377.035 437.492 377.035C437.492 383.606 437.492 390.22 437.492 396.791C438.666 396.833 439.605 396.875 440.661 396.875C442.773 395.284 444.768 393.735 446.88 392.145C447.701 392.187 448.523 392.27 449.344 392.312C449.344 400.474 449.344 408.636 449.344 416.798C461.196 392.312 452.982 367.617 460.257 343.131C461.9 358.158 463.66 373.184 465.42 388.21C479.854 366.906 474.456 345.308 474.925 323.794C475.394 321.827 475.864 319.859 476.333 317.892C477.037 317.892 477.741 317.892 478.445 317.892C478.915 319.859 479.502 321.827 479.971 323.794C479.971 346.145 479.971 368.496 479.971 390.889C481.144 390.889 482.318 390.889 483.491 390.889C484.782 378.709 486.19 366.529 487.481 354.349C495.812 350.875 488.537 345.141 501.914 342.127C504.848 341.457 502.97 338.151 503.322 336.058C506.138 347.484 506.021 358.869 506.139 370.254C506.139 373.226 506.373 376.198 507.195 379.128C511.771 394.656 517.169 410.143 521.276 425.672C522.801 431.406 521.628 437.224 521.628 443C522.919 443 523.975 443 525.618 443C525.618 433.331 525.618 423.662 525.618 413.994C525.97 413.994 527.026 413.994 527.73 413.952C528.786 415.04 529.959 416.128 531.016 417.217C531.837 417.175 532.658 417.133 533.48 417.091C535.122 399.26 536.765 381.472 538.291 363.641C539.347 363.641 540.286 363.641 541.459 363.683C541.459 373.226 541.459 382.769 541.459 392.312C541.811 392.312 542.28 392.27 542.632 392.229C547.561 380.886 552.607 369.543 557.535 358.2C558.474 358.241 559.295 358.241 560.469 358.283C560.469 366.864 560.469 375.444 560.469 384.025C561.642 384.025 562.464 384.025 563.754 384.025C563.754 366.194 563.754 348.405 563.754 330.575C564.576 330.575 565.28 330.575 565.984 330.575C567.979 348.405 569.974 366.236 571.851 384.067C573.025 384.067 574.315 384.067 575.489 384.025C575.489 376.156 575.489 368.329 575.489 359.706C592.151 365.692 585.58 372.431 586.402 378.542C587.34 384.946 586.519 391.35 586.519 397.795C587.81 397.795 589.335 397.795 590.509 397.795C590.509 388.587 590.509 379.379 590.509 370.17C591.682 370.17 592.504 370.17 593.442 370.129C595.789 377.914 598.136 385.657 600.483 393.442C602.36 393.401 604.003 393.317 606.115 393.275C606.115 383.355 606.115 373.435 606.115 363.515C607.289 363.515 608.932 363.557 610.223 363.557C610.223 378.625 610.223 393.694 610.223 408.762C611.044 408.762 611.396 408.762 611.983 408.762C613.508 401.814 614.916 394.866 616.442 387.876C617.85 387.917 619.141 387.959 620.549 387.959C621.018 390.345 621.488 392.731 621.957 395.117C622.778 395.117 623.717 395.117 624.538 395.117C624.891 392.27 625.36 389.382 625.712 386.536C626.768 386.536 627.707 386.536 628.88 386.536C628.88 390.764 628.88 394.949 628.88 399.177C629.232 399.177 629.936 399.177 630.406 399.135C634.865 386.243 639.207 373.352 643.666 360.46C645.191 360.502 646.834 360.544 648.359 360.627C648.359 364.436 648.359 368.203 648.359 372.012C649.533 372.012 650.823 372.012 651.997 372.012C651.997 361.13 651.997 350.247 651.997 339.323C653.17 344.01 655.165 348.698 655.4 353.386C655.869 363.222 655.635 373.059 655.635 382.853C656.573 382.853 657.512 382.853 658.451 382.853C660.563 372.305 662.558 361.716 664.67 351.168C665.257 351.168 665.961 351.168 666.548 351.21C667.017 354.056 667.604 356.944 668.073 359.79C669.246 359.79 670.42 359.79 671.593 359.748C671.593 352.758 671.593 345.81 671.593 338.82C672.767 338.82 674.41 338.82 675.7 338.862C677.109 348.029 678.517 357.153 679.925 366.32C680.511 366.32 681.216 366.32 681.802 366.32C682.272 363.934 682.741 361.548 683.093 359.162C683.68 359.162 684.384 359.162 684.971 359.162C686.965 372.138 689.078 385.155 691.072 398.13C704.802 382.351 700.343 365.985 701.985 349.87C703.394 349.87 704.802 349.912 706.092 349.912C706.092 372.18 706.092 394.489 706.092 416.756C709.73 410.143 706.797 403.362 710.199 397C717.24 383.355 709.965 369.543 719.47 355.772C726.158 346.103 720.526 335.346 720.291 325.091C720.76 324.673 720.76 324.212 720.408 323.794C720.878 320.571 721.347 317.306 721.817 314.083C722.755 314.083 723.694 314.125 724.867 314.125C724.867 316.134 724.867 318.143 724.867 320.194C724.867 340.704 724.75 361.171 724.867 381.681C724.867 383.481 724.633 386.745 725.924 386.829C743.173 388.043 735.546 392.815 735.898 395.912C736.954 404.744 736.25 413.575 736.25 422.407C737.541 422.407 738.714 422.407 740.005 422.449C740.005 420.063 740.005 417.677 740.005 415.291C740.005 392.982 740.005 370.673 740.005 348.363C740.005 341.08 740.005 333.798 740.239 326.515C740.239 325.426 742.117 324.38 743.173 323.292C743.525 323.459 743.994 323.627 744.464 323.794C741.53 336.853 747.75 349.452 760.423 361.883C760.423 358.367 760.423 354.893 760.423 351.377C760.775 351.377 761.361 351.419 761.831 351.419C763.708 371.301 765.586 391.224 767.463 411.106C768.637 411.106 769.81 411.064 770.984 411.064C770.984 387.876 770.984 364.645 770.984 341.457C772.157 341.457 773.448 341.457 774.621 341.457C774.621 367.952 774.621 394.489 774.621 420.984C779.08 412.905 781.544 404.785 782.014 396.665C782.835 384.36 782.014 372.012 782.366 359.706C782.483 357.321 784.83 354.977 786.121 352.591C788.585 360.041 779.08 368.245 798.325 375.486C798.325 370.254 798.325 365.734 798.325 361.213C799.498 363.641 801.258 366.069 801.375 368.496C801.728 376.951 801.024 385.364 801.728 393.819C802.314 401.06 804.309 408.259 805.835 415.501C807.125 415.501 808.534 415.459 809.824 415.459C809.824 389.55 809.824 363.599 809.824 337.69C810.998 337.69 812.288 337.69 813.11 337.69C813.11 340.16 813.11 342.629 813.11 345.141C813.11 367.701 812.993 390.303 813.345 412.864C813.345 416.087 815.692 419.268 816.865 422.491C818.156 422.449 819.447 422.407 820.737 422.365C820.737 420.105 820.737 417.844 820.737 415.626C820.737 398.298 820.385 380.969 821.089 363.641C821.207 359.999 825.9 356.358 828.365 352.716C829.655 363.641 830.946 374.607 832.237 385.532C832.941 385.49 833.645 385.49 834.349 385.448C836.109 380.593 837.87 375.737 839.512 370.924C841.272 377.202 843.15 383.481 844.91 389.717C845.38 389.759 845.966 389.801 846.436 389.843C847.14 387.834 847.726 385.825 848.431 383.857C849.604 383.857 850.777 383.857 852.068 383.857C853.594 388.964 855.236 394.112 856.762 399.219C859.109 391.936 858.405 384.695 859.226 377.453C860.047 370.338 855.119 363.013 864.155 355.479C876.241 361.883 866.501 368.747 873.307 374.775C874.481 372.305 874.011 369.877 874.598 367.408C875.42 363.892 876.945 360.376 878.118 356.902C879.409 375.109 880.817 393.317 882.108 411.482C882.108 411.692 881.991 411.943 882.225 412.152C883.281 413.198 884.338 414.203 885.394 415.208C886.802 415.124 888.327 415.04 889.735 414.998C889.735 407.087 889.031 399.177 889.97 391.266C890.674 384.82 885.159 378.123 897.363 371.97C901.587 369.836 901 366.278 901.118 363.39C901.587 354.935 901.235 346.522 901.47 338.067C901.47 336.518 903.113 334.969 903.934 333.463C905.694 333.505 907.454 333.588 909.097 333.63C909.097 348.991 909.097 364.352 909.097 379.714C910.271 379.714 911.913 379.714 913.204 379.672C913.204 372.012 913.204 364.394 913.204 356.735C914.026 356.735 915.082 356.693 916.021 356.693C919.306 365.776 922.592 374.816 925.995 383.899C926.933 383.857 927.872 383.857 928.694 383.816C928.694 367.952 928.694 352.047 928.694 336.183C934.795 350.666 927.051 365.441 939.724 379.797C939.724 367.534 939.724 355.27 939.724 343.048C940.897 343.006 941.836 342.964 942.892 342.922C948.76 356.023 954.627 369.082 960.494 382.183C962.019 382.183 963.545 382.141 965.07 382.141C967.3 374.147 969.764 366.152 971.994 358.158C972.698 358.158 973.402 358.158 974.223 358.158C974.223 365.943 974.223 373.728 974.223 381.513C975.396 381.513 977.039 381.513 978.565 381.513C980.208 368.664 981.733 355.856 983.493 341.876C985.723 348.112 987.6 353.177 989.478 358.241C989.83 359.162 990.299 360.083 990.651 361.004C991.355 360.962 991.942 360.92 992.646 360.878C993.233 358.158 993.819 355.437 994.406 352.758C995.11 352.8 995.697 352.8 996.401 352.842C999.335 365.524 1002.27 378.207 1005.08 390.889C1006.02 390.847 1007.2 390.847 1008.02 390.805C1008.02 368.957 1008.02 347.066 1008.02 325.217C1008.37 324.798 1008.72 324.338 1008.72 323.92L1010.6 323.878L1012.48 323.92C1012.48 346.145 1012.48 368.371 1012.48 390.596C1014.12 390.596 1016.23 390.596 1018.23 390.596C1019.17 372.556 1020.1 354.558 1021.16 336.518C1021.75 336.518 1022.33 336.56 1022.92 336.56C1024.21 342.127 1025.5 347.694 1026.79 353.261C1028.08 353.302 1029.26 353.344 1030.55 353.386C1032.89 351.67 1035.24 349.954 1037.71 348.196C1038.76 348.196 1039.94 348.196 1040.99 348.238C1042.17 357.446 1043.34 366.655 1044.51 375.863C1045.45 375.863 1046.39 375.863 1047.21 375.863C1047.21 365.901 1047.21 355.939 1047.21 345.978C1048.38 348.363 1050.26 350.707 1050.85 353.093C1052.84 361.046 1054.49 369.04 1056.25 377.035C1056.83 377.035 1057.42 376.993 1057.89 376.993C1059.41 368.036 1060.94 359.079 1062.58 350.121C1064.58 351.503 1066.57 352.842 1070.33 355.437C1070.33 351.168 1069.62 348.28 1070.68 345.434C1071.03 344.303 1075.14 343.341 1077.49 342.336C1079.6 350.707 1081.59 359.079 1083.59 367.45C1084.88 367.45 1086.29 367.45 1087.46 367.45C1087.46 355.772 1087.46 344.094 1087.46 332.416C1089.45 332.416 1091.1 332.416 1092.74 332.416C1092.74 347.359 1092.74 362.26 1092.74 377.202C1093.91 377.244 1095.09 377.244 1096.14 377.286C1098.26 371.803 1100.37 366.32 1102.48 360.795C1104.01 361.381 1105.41 361.925 1107.17 362.594C1109.05 354.223 1110.81 346.103 1112.57 337.983C1121.14 337.355 1119.73 339.657 1119.85 341.332C1120.32 346.898 1120.43 352.507 1120.67 358.074C1120.79 358.283 1120.79 358.534 1121.14 358.744C1121.37 358.953 1121.96 359.079 1122.31 359.246C1124.07 357.572 1127.12 355.898 1127.36 354.181C1127.94 347.861 1127.59 341.541 1127.59 335.221C1134.51 347.819 1127 360.669 1139.21 373.1C1139.21 364.52 1139.21 355.981 1139.21 347.401C1140.38 347.401 1142.02 347.401 1143.32 347.359C1143.32 354.014 1143.32 360.711 1143.32 367.366C1143.67 367.324 1144.14 367.282 1144.49 367.241C1147.89 356.986 1151.41 346.731 1154.82 336.476C1155.87 336.518 1157.04 336.518 1158.1 336.56C1159.98 342.336 1161.97 348.154 1163.97 353.93C1164.55 353.93 1164.91 353.93 1165.73 353.93C1165.73 343.969 1165.73 333.965 1165.73 324.003C1165.73 322.203 1166.08 320.445 1166.31 318.688C1167.72 320.487 1169.01 322.245 1170.42 324.045C1170.07 324.464 1170.07 324.882 1170.42 325.343C1170.3 336.309 1167.25 347.359 1175.82 358.618C1177.35 356.944 1178.4 355.772 1179.46 354.642C1180.28 354.684 1181.33 354.767 1182.16 354.809C1182.16 359.999 1182.16 365.148 1182.16 370.338C1183.33 370.38 1184.74 370.38 1186.15 370.422C1187.2 366.948 1188.49 363.432 1189.2 359.958C1190.72 353.009 1191.78 346.019 1193.07 339.071C1197.06 341.959 1200.93 344.889 1207.03 349.326C1207.97 343.215 1208.68 338.569 1209.38 333.923C1215.72 342.964 1204.8 352.758 1222.41 360.962C1226.75 353.679 1231.21 346.354 1236.49 337.481C1239.42 342.713 1241.53 346.271 1243.53 349.787C1244.94 349.745 1246.23 349.661 1247.87 349.619C1247.87 343.508 1247.87 337.397 1247.87 331.244C1247.87 331.286 1248.22 331.286 1248.57 331.328C1251.51 341.206 1254.44 351.042 1257.49 360.92C1259.25 360.92 1261.13 360.92 1262.89 360.92C1265.35 352.8 1267.82 344.68 1270.16 336.602C1274.51 336.727 1276.62 336.644 1276.85 336.811C1279.55 339.699 1282.13 342.587 1285.77 346.815C1288.12 343.508 1289.64 341.457 1291.87 338.318C1294.57 350.163 1294.34 350.163 1310.18 349.954C1310.18 345.182 1310.18 340.369 1310.18 335.597C1311 335.597 1312.41 335.555 1313.58 335.555C1315.58 338.737 1317.57 341.918 1319.57 345.057C1321.56 347.066 1323.56 349.075 1326.02 351.545C1328.01 347.317 1329.66 343.885 1331.42 340.118C1335.99 341.959 1339.4 343.341 1342.68 344.722C1343.03 345.978 1343.27 347.233 1343.62 348.531C1344.56 348.531 1345.73 348.531 1346.55 348.489C1346.55 342.211 1346.55 335.932 1346.55 329.654C1347.73 329.612 1349.02 329.57 1350.19 329.57C1352.19 334.551 1354.18 339.532 1356.29 344.806C1357.59 344.052 1358.41 343.508 1359.35 343.006C1359.58 342.922 1360.4 343.006 1360.87 343.006C1362.04 344.513 1363.1 346.061 1364.27 347.61C1365.21 347.568 1366.15 347.526 1367.09 347.484C1369.32 342.88 1371.55 338.318 1373.78 333.714C1377.06 338.569 1380.12 343.424 1383.4 348.28C1384.34 348.28 1385.28 348.28 1386.1 348.28C1386.1 343.717 1386.1 339.155 1386.1 334.551C1387.74 334.509 1388.8 334.467 1390.09 334.425C1394.43 338.695 1398.89 342.964 1403.35 347.233C1420.72 343.508 1404.87 335.472 1418.96 330.868C1419.78 334.425 1420.6 337.774 1421.3 341.122C1422.83 341.08 1424.35 341.08 1425.88 341.039C1426.82 337.732 1427.76 334.425 1428.46 331.998C1433.15 336.058 1438.44 340.536 1444.54 345.852C1449.58 342.043 1453.22 339.281 1458.5 335.388C1460.97 338.234 1462.37 339.867 1464.84 342.755C1465.78 338.653 1466.36 336.1 1467.18 332.04C1469.41 334.635 1470.35 335.723 1471.17 336.769C1473.87 336.225 1476.45 335.723 1479.27 335.137C1481.03 337.355 1482.56 339.197 1484.67 341.792C1490.77 340.118 1495.23 338.904 1499.34 337.816C1500.04 338.485 1501.1 339.616 1502.86 341.332C1509.9 338.695 1515.65 336.518 1521.05 334.509C1524.92 336.602 1528.56 338.611 1532.19 340.62C1533.37 340.536 1534.42 340.494 1535.6 340.411C1535.6 336.937 1535.6 333.463 1535.6 329.947C1536.42 329.989 1537.12 329.989 1537.94 330.03C1538.65 332.877 1539.47 335.723 1540.29 339.03C1552.61 334.97 1560.24 330.951 1558.48 325.426L1560 325.384L1561.53 325.426C1564.11 330.658 1566.81 335.848 1569.27 340.787C1580.77 340.871 1584.88 339.323 1587.58 336.141C1589.57 333.881 1596.38 332.165 1601.66 329.863C1604.48 333.756 1606.82 336.937 1609.52 340.62C1627.48 337.355 1636.98 333.044 1638.51 326.598C1643.08 331.119 1647.66 335.681 1652.47 340.411C1653.53 338.737 1654.47 337.313 1655.52 335.807C1658.69 336.518 1660.8 336.937 1661.62 337.146C1668.08 334.258 1673.94 331.579 1681.69 328.105C1685.21 332.416 1687.91 335.848 1691.31 340.034C1696 337.69 1699.88 335.681 1703.87 333.756C1711.02 330.407 1721.59 330.658 1726.63 334.342C1728.74 335.848 1730.15 337.481 1731.33 338.569C1736.14 335.89 1740.83 333.337 1745.52 330.742C1752.56 331.077 1759.61 331.412 1767.7 331.788C1768.29 332.542 1769.34 333.798 1770.64 335.346C1774.27 333.379 1777.56 331.579 1782.02 329.11C1790.82 334.886 1802.44 332.04 1813.23 331.412C1818.16 331.119 1823.67 328.9 1827.2 332.249C1827.66 332.709 1832.48 332.96 1834.82 332.709C1843.51 331.788 1851.84 330.575 1861.34 329.361C1863.1 330.575 1864.75 331.705 1866.39 332.835C1881.64 332.333 1895.37 326.849 1912.15 331.077C1913.44 331.412 1916.14 331.537 1917.55 331.286C1935.27 328.105 1955.1 329.612 1972.94 329.57C2013.65 329.528 2054.26 326.515 2094.97 329.026C2096.73 329.152 2098.73 328.984 2100.61 328.9C2118.91 328.398 2137.22 327.938 2155.52 327.435C2166.08 327.142 2176.65 326.808 2187.21 326.515C2202.23 326.64 2217.13 326.891 2232.15 326.849C2292.82 326.808 2353.36 326.682 2414.03 326.473C2419.55 326.473 2425.06 325.803 2430.69 325.468C2437.85 325.845 2444.78 326.263 2452.17 326.64C2452.17 325.719 2452.17 324.798 2452.17 323.92C2446.18 323.041 2439.61 322.287 2432.81 322.245Z" fill="white"/>
</g>
</g>
</svg>
